{"asset":{"version":"2.0","generator":"babylon.js glTF exporter for Autodesk Maya 2020.4 v20221031.2"},"scene":0,"scenes":[{"nodes":[0,3,4,5]}],"nodes":[{"children":[1,2],"scale":[50.0,50.0,50.0],"name":"cubo"},{"mesh":0,"name":"cubo_body"},{"mesh":1,"translation":[0.0,0.005049332,-0.00515446672],"name":"cubo_tapa"},{"name":"aiSkyDomeLight1"},{"mesh":2,"translation":[0.0,-0.1671779,0.0],"name":"katavo"},{"mesh":3,"translation":[-0.00405395543,-0.08064065,0.07562904],"name":"myLigth"}],"meshes":[{"primitives":[{"attributes":{"POSITION":1,"TANGENT":2,"NORMAL":3,"TEXCOORD_0":4},"indices":0,"material":0}],"name":"cubo_body"},{"primitives":[{"attributes":{"POSITION":6,"TANGENT":7,"NORMAL":8,"TEXCOORD_0":9},"indices":5,"material":1}],"name":"cubo_tapa"},{"primitives":[{"attributes":{"POSITION":11,"TANGENT":12,"NORMAL":13,"TEXCOORD_0":14},"indices":10,"material":2}],"name":"katavo"},{"primitives":[{"attributes":{"POSITION":16,"TANGENT":17,"NORMAL":18,"TEXCOORD_0":19},"indices":15,"material":1}],"name":"myLigth"}],"accessors":[{"bufferView":0,"componentType":5123,"count":84,"type":"SCALAR","name":"accessorIndices"},{"bufferView":1,"componentType":5126,"count":48,"max":[0.00515999971,0.005,0.00515999971],"min":[-0.00515999971,-0.00515999971,-0.00515999971],"type":"VEC3","name":"accessorPositions"},{"bufferView":2,"componentType":5126,"count":48,"type":"VEC4","name":"accessorTangents"},{"bufferView":1,"byteOffset":576,"componentType":5126,"count":48,"type":"VEC3","name":"accessorNormals"},{"bufferView":3,"componentType":5126,"count":48,"type":"VEC2","name":"accessorUVs"},{"bufferView":0,"byteOffset":168,"componentType":5123,"count":36,"type":"SCALAR","name":"accessorIndices"},{"bufferView":1,"byteOffset":1152,"componentType":5126,"count":24,"max":[0.005,0.000111432666,0.0101211341],"min":[-0.005,-0.000111432666,0.000121134515],"type":"VEC3","name":"accessorPositions"},{"bufferView":2,"byteOffset":768,"componentType":5126,"count":24,"type":"VEC4","name":"accessorTangents"},{"bufferView":1,"byteOffset":1440,"componentType":5126,"count":24,"type":"VEC3","name":"accessorNormals"},{"bufferView":3,"byteOffset":384,"componentType":5126,"count":24,"type":"VEC2","name":"accessorUVs"},{"bufferView":0,"byteOffset":240,"componentType":5123,"count":61602,"type":"SCALAR","name":"accessorIndices"},{"bufferView":1,"byteOffset":1728,"componentType":5126,"count":15065,"max":[0.207159787,0.219002,0.0249999985],"min":[-0.161388591,0.0907323062,0.0],"type":"VEC3","name":"accessorPositions"},{"bufferView":2,"byteOffset":1152,"componentType":5126,"count":15065,"type":"VEC4","name":"accessorTangents"},{"bufferView":1,"byteOffset":182508,"componentType":5126,"count":15065,"type":"VEC3","name":"accessorNormals"},{"bufferView":3,"byteOffset":576,"componentType":5126,"count":15065,"type":"VEC2","name":"accessorUVs"},{"bufferView":0,"byteOffset":123444,"componentType":5123,"count":252,"type":"SCALAR","name":"accessorIndices"},{"bufferView":1,"byteOffset":363288,"componentType":5126,"count":182,"max":[0.06769856,0.06943956,0.0660012141],"min":[-0.0609942935,-0.06943956,-0.0660012141],"type":"VEC3","name":"accessorPositions"},{"bufferView":2,"byteOffset":242192,"componentType":5126,"count":182,"type":"VEC4","name":"accessorTangents"},{"bufferView":1,"byteOffset":365472,"componentType":5126,"count":182,"type":"VEC3","name":"accessorNormals"},{"bufferView":3,"byteOffset":121096,"componentType":5126,"count":182,"type":"VEC2","name":"accessorUVs"},{"bufferView":4,"componentType":5126,"count":2,"max":[1.625],"min":[0.0],"type":"SCALAR","name":"accessorAnimationInput"},{"bufferView":5,"componentType":5126,"count":2,"type":"VEC4","name":"accessorAnimationRotations"},{"bufferView":4,"byteOffset":8,"componentType":5126,"count":2,"max":[1.625],"min":[0.0],"type":"SCALAR","name":"accessorAnimationInput"},{"bufferView":6,"componentType":5126,"count":2,"type":"VEC3","name":"accessorAnimationPositions"},{"bufferView":4,"byteOffset":16,"componentType":5126,"count":39,"max":[1.625],"min":[0.0],"type":"SCALAR","name":"accessorAnimationInput"},{"bufferView":6,"byteOffset":24,"componentType":5126,"count":39,"type":"VEC3","name":"accessorAnimationPositions"},{"bufferView":4,"byteOffset":172,"componentType":5126,"count":2,"max":[1.625],"min":[0.0],"type":"SCALAR","name":"accessorAnimationInput"},{"bufferView":6,"byteOffset":492,"componentType":5126,"count":2,"type":"VEC3","name":"accessorAnimationScales"},{"bufferView":4,"byteOffset":180,"componentType":5126,"count":38,"max":[1.625],"min":[0.0],"type":"SCALAR","name":"accessorAnimationInput"},{"bufferView":6,"byteOffset":516,"componentType":5126,"count":38,"type":"VEC3","name":"accessorAnimationPositions"},{"bufferView":4,"byteOffset":332,"componentType":5126,"count":250,"max":[10.375],"min":[0.0],"type":"SCALAR","name":"accessorAnimationInput"},{"bufferView":5,"byteOffset":32,"componentType":5126,"count":250,"type":"VEC4","name":"accessorAnimationRotations"},{"bufferView":4,"byteOffset":1332,"componentType":5126,"count":2,"max":[10.375],"min":[0.0],"type":"SCALAR","name":"accessorAnimationInput"},{"bufferView":6,"byteOffset":972,"componentType":5126,"count":2,"type":"VEC3","name":"accessorAnimationPositions"},{"bufferView":4,"byteOffset":1340,"componentType":5126,"count":220,"max":[10.375],"min":[0.0],"type":"SCALAR","name":"accessorAnimationInput"},{"bufferView":6,"byteOffset":996,"componentType":5126,"count":220,"type":"VEC3","name":"accessorAnimationPositions"},{"bufferView":4,"byteOffset":2220,"componentType":5126,"count":23,"max":[10.375],"min":[0.0],"type":"SCALAR","name":"accessorAnimationInput"},{"bufferView":6,"byteOffset":3636,"componentType":5126,"count":23,"type":"VEC3","name":"accessorAnimationScales"},{"bufferView":4,"byteOffset":2312,"componentType":5126,"count":249,"max":[10.375],"min":[0.0],"type":"SCALAR","name":"accessorAnimationInput"},{"bufferView":6,"byteOffset":3912,"componentType":5126,"count":249,"type":"VEC3","name":"accessorAnimationPositions"}],"bufferViews":[{"buffer":0,"byteLength":123948,"name":"bufferViewScalar"},{"buffer":0,"byteOffset":123948,"byteLength":367656,"byteStride":12,"name":"bufferViewFloatVec3"},{"buffer":0,"byteOffset":491604,"byteLength":245104,"byteStride":16,"name":"bufferViewFloatVec4"},{"buffer":0,"byteOffset":736708,"byteLength":122552,"byteStride":8,"name":"bufferViewFloatVec2"},{"buffer":0,"byteOffset":859260,"byteLength":3308,"name":"bufferViewAnimationFloatScalar"},{"buffer":0,"byteOffset":862568,"byteLength":4032,"name":"bufferViewAnimationFloatVec4"},{"buffer":0,"byteOffset":866600,"byteLength":6900,"name":"bufferViewAnimationFloatVec3"}],"buffers":[{"uri":"myAnimLigth1.bin","byteLength":873500}],"materials":[{"pbrMetallicRoughness":{"baseColorFactor":[0.8,0.8,0.8,1.0],"baseColorTexture":{"index":1},"metallicFactor":0.0,"roughnessFactor":0.0335570462},"normalTexture":{"index":0},"name":"body_mtl"},{"pbrMetallicRoughness":{"baseColorFactor":[0.5,0.5,0.5,1.0],"metallicFactor":0.0,"roughnessFactor":0.450053632},"name":"lambert1"},{"pbrMetallicRoughness":{"metallicFactor":0.0,"roughnessFactor":0.201679826},"name":"typeBlinn"}],"textures":[{"sampler":0,"source":0,"name":"BMP-katavo.png"},{"sampler":0,"source":1,"name":"RGB-katavo.png"}],"images":[{"uri":"BMP-katavo.png"},{"uri":"RGB-katavo.png"}],"samplers":[{"magFilter":9729,"minFilter":9987}],"animations":[{"channels":[{"sampler":0,"target":{"node":2,"path":"rotation"}},{"sampler":1,"target":{"node":2,"path":"translation"}},{"sampler":2,"target":{"node":4,"path":"translation"}},{"sampler":3,"target":{"node":5,"path":"scale"}},{"sampler":4,"target":{"node":5,"path":"translation"}}],"samplers":[{"input":20,"output":21},{"input":22,"output":23},{"input":24,"output":25},{"input":26,"output":27},{"input":28,"output":29}],"name":"Freeze"},{"channels":[{"sampler":0,"target":{"node":2,"path":"rotation"}},{"sampler":1,"target":{"node":2,"path":"translation"}},{"sampler":2,"target":{"node":4,"path":"translation"}},{"sampler":3,"target":{"node":5,"path":"scale"}},{"sampler":4,"target":{"node":5,"path":"translation"}}],"samplers":[{"input":30,"output":31},{"input":32,"output":33},{"input":34,"output":35},{"input":36,"output":37},{"input":38,"output":39}],"name":"Animating"}]}